<?xml version="1.0" encoding="UTF-8" standalone="no"?>
<svg
   xmlns:dc="http://purl.org/dc/elements/1.1/"
   xmlns:cc="http://creativecommons.org/ns#"
   xmlns:rdf="http://www.w3.org/1999/02/22-rdf-syntax-ns#"
   xmlns:svg="http://www.w3.org/2000/svg"
   xmlns="http://www.w3.org/2000/svg"
   xmlns:sodipodi="http://sodipodi.sourceforge.net/DTD/sodipodi-0.dtd"
   xmlns:inkscape="http://www.inkscape.org/namespaces/inkscape"
   enable-background="new 0 0 24 24"
   id="Layer_1"
   version="1.1"
   viewBox="0 0 110 110"
   xml:space="preserve"
   sodipodi:docname="logo.svg"
   width="110"
   height="110"
   inkscape:version="0.92.1 r15371"><metadata
     id="metadata124"><rdf:RDF><cc:Work
         rdf:about=""><dc:format>image/svg+xml</dc:format><dc:type
           rdf:resource="http://purl.org/dc/dcmitype/StillImage" /><dc:title></dc:title></cc:Work></rdf:RDF></metadata><defs
     id="defs122" /><sodipodi:namedview
     pagecolor="#ffffff"
     bordercolor="#666666"
     borderopacity="1"
     objecttolerance="10"
     gridtolerance="10"
     guidetolerance="10"
     inkscape:pageopacity="0"
     inkscape:pageshadow="2"
     inkscape:window-width="1920"
     inkscape:window-height="1016"
     id="namedview120"
     showgrid="false"
     inkscape:zoom="6.0766989"
     inkscape:cx="26.262841"
     inkscape:cy="53.167163"
     inkscape:window-x="0"
     inkscape:window-y="27"
     inkscape:window-maximized="1"
     inkscape:current-layer="Layer_1" /><path
     d="M 98.035157,27.289063 C 97.975587,27.253173 55.859375,7.193359 55.859375,7.193359 c -0.546875,-0.257812 -1.171875,-0.257812 -1.71875,0 0,0 -42.116455,20.059815 -42.175781,20.095704 C 11.367188,27.650391 11,28.300781 11,29 v 48 c 0,0.716797 0.382812,1.380859 1.007812,1.736328 l 41.986329,23.992192 c 0,0 0.0012,10e-4 0.0019,0.002 l 0.0027,7.3e-4 0.009,0.005 0.0015,-0.002 C 54.315186,102.90894 54.656982,103 55,103 c 0.34375,0 0.683594,-0.0879 0.992188,-0.26367 l 42,-24.000002 C 98.617191,78.380859 99,77.716797 99,77 V 29 c 0,-0.699219 -0.367189,-1.349609 -0.964843,-1.710937 z M 31,84.982666 15,75.839844 V 56.306152 l 16,8.380859 z M 17.474121,29.085205 34.499756,20.977539 50.34668,28.523438 32.565918,36.990478 Z M 53,71.69458 35,62.265625 V 42.781494 l 18,9.4292 z m 4,4.516358 18,-9.428711 V 87.267578 L 57,97.55274 Z m 2.65332,-47.6875 15.846924,-7.545899 17.025636,8.107666 -15.091798,7.905273 z M 95,51.789063 79,60.17041 V 40.68628 l 16,-8.381592 z"
     id="path87"
     inkscape:connector-curvature="0"
     style="fill:#303c42;stroke-width:4" /><g
     id="g89"
     transform="translate(0,86)" /><g
     id="g91"
     transform="translate(0,86)" /><g
     id="g93"
     transform="translate(0,86)" /><g
     id="g95"
     transform="translate(0,86)" /><g
     id="g97"
     transform="translate(0,86)" /><g
     id="g99"
     transform="translate(0,86)" /><g
     id="g101"
     transform="translate(0,86)" /><g
     id="g103"
     transform="translate(0,86)" /><g
     id="g105"
     transform="translate(0,86)" /><g
     id="g107"
     transform="translate(0,86)" /><g
     id="g109"
     transform="translate(0,86)" /><g
     id="g111"
     transform="translate(0,86)" /><g
     id="g113"
     transform="translate(0,86)" /><g
     id="g115"
     transform="translate(0,86)" /><g
     id="g117"
     transform="translate(0,86)" /></svg>